<?xml version="1.0" encoding="UTF-8" standalone="no"?>
<svg
   viewBox="0 0 48 48"
   width="48px"
   height="48px"
   version="1.1"
   id="svg16"
   sodipodi:docname="appicon.svg"
   inkscape:version="1.2 (dc2aeda, 2022-05-15)"
   xmlns:inkscape="http://www.inkscape.org/namespaces/inkscape"
   xmlns:sodipodi="http://sodipodi.sourceforge.net/DTD/sodipodi-0.dtd"
   xmlns="http://www.w3.org/2000/svg"
   xmlns:svg="http://www.w3.org/2000/svg">
  <defs
     id="defs20" />
  <sodipodi:namedview
     id="namedview18"
     pagecolor="#ffffff"
     bordercolor="#000000"
     borderopacity="0.25"
     inkscape:showpageshadow="2"
     inkscape:pageopacity="0.0"
     inkscape:pagecheckerboard="0"
     inkscape:deskcolor="#d1d1d1"
     showgrid="false"
     inkscape:zoom="10.697917"
     inkscape:cx="0.23369035"
     inkscape:cy="27.715676"
     inkscape:window-width="1878"
     inkscape:window-height="1205"
     inkscape:window-x="0"
     inkscape:window-y="25"
     inkscape:window-maximized="0"
     inkscape:current-layer="g801" />
  <g
     id="g801"
     transform="matrix(0.7382668,0,0,0.7382668,6.2815967,6.2815967)">
    <path
       fill="#2196f3"
       d="m 37.97382,22.987404 c -0.810077,0 -1.417634,0 -2.126451,0 -0.202519,0 -0.506298,0.708817 -0.202519,0.708817 0.371825,0 0.583255,-0.0041 1.215114,0 0.07696,8.1e-4 0.405039,0 0.405039,0.405039 0,0.230871 -0.10126,0.506297 -0.607558,0.506297 -0.303778,0 -0.506297,0 -1.417634,0 -0.303778,0 -0.506297,0.810077 -0.506297,1.113856 0,0.202519 0.101259,0.202519 0.202519,0.202519 0.209,0 1.723033,-0.539511 2.025191,-0.506298 0.240593,0.02673 0.405038,0.221961 0.405038,0.506298 0,0.506298 -1.69792,1.313134 -2.734008,1.313134 -0.405038,0 -1.113855,-0.285957 -1.113855,-1.110615 0,-0.607558 0.405038,-1.417634 0.405038,-1.620153 0,-0.202519 -0.101259,-0.202519 -0.101259,-0.405038 0,-0.20252 0.101259,-0.405039 0.506297,-0.405039 0.10126,0 0.20252,-0.303778 0.303779,-0.810076 0.03969,-0.200089 -0.202519,-0.10126 -0.607557,-0.303779 -0.364535,-0.182267 -0.300539,-0.53222 -0.10126,-0.622949 0.217101,-0.09802 2.33059,-0.145003 3.49224,-0.208189 0.287577,-0.01539 0.608367,-0.01053 0.861921,0.831138 0.064,0.21305 -0.101259,0.405038 -0.303778,0.405038 z"
       id="path2"
       style="fill:#ffffff;fill-opacity:1;stroke-width:0.810076" />
    <path
       fill="#2196f3"
       d="m 31.796986,27.139046 c -0.656162,0 -1.113855,-1.113855 -1.518893,-2.22771 C 30.014818,24.186318 29.974314,24 29.873055,24 c -0.10126,0 -0.202519,0.405038 -0.202519,1.113855 0,1.923932 -0.303779,2.126451 -0.607558,2.126451 -0.405038,0 -0.506298,-0.725829 -0.506298,-1.215115 0,-2.632748 0.810077,-3.847863 1.113856,-3.847863 0.148244,0 0.344282,0.06805 0.506297,0.303779 1.113856,1.620153 1.417634,3.139046 1.620153,3.139046 0.10126,0 0.202519,-0.303779 0.202519,-0.708817 0,-1.822672 -0.405038,-2.531489 -0.607557,-3.442825 -0.0486,-0.219531 0.116651,-0.331321 0.303779,-0.202519 0.485236,0.333751 1.417634,1.316374 1.417634,3.240306 0,1.923932 -0.699096,2.632748 -1.316375,2.632748 z"
       id="path4"
       style="fill:#ffffff;fill-opacity:1;stroke-width:0.810076" />
    <path
       fill="#2196f3"
       d="m 28.050383,22.582366 c 0,0.303779 -0.20252,0.506298 -0.607558,0.506298 -0.607557,0 -1.113855,-0.202519 -2.025191,-0.202519 -1.620153,0 -1.620153,0.202519 -1.620153,0.405038 0,0.304589 1.620153,0.202519 2.632749,0.405038 1.012595,0.202519 1.721412,0.506298 1.721412,1.620153 -0.01134,0.727449 -0.405038,1.923932 -2.531489,1.923932 -1.518893,0 -2.734008,-0.708817 -2.734008,-1.620153 0,-0.31512 0.101259,-1.012596 1.316374,-1.012596 0.911336,0 2.43023,0.405039 2.43023,0.708817 0,0.303779 -0.383167,0.506298 -1.012596,0.506298 -0.810076,0 -1.316374,-0.607557 -1.923932,-0.607557 -0.202519,0 -0.303778,0.101259 -0.303778,0.303778 0,0.607558 1.518893,0.810077 2.22771,0.810077 0.648871,0 1.620153,-0.202519 1.620153,-0.911336 0,-0.405038 -0.303779,-0.810077 -2.025191,-1.012596 -0.41881,-0.04941 -2.32897,0 -2.32897,-1.113855 0,-0.911336 0.826278,-1.518893 2.734008,-1.518893 1.90773,0 2.43023,0.405038 2.43023,0.810076 z"
       id="path6"
       style="fill:#ffffff;fill-opacity:1;stroke-width:0.810076" />
    <path
       fill="#2196f3"
       d="m 21.77229,27.240306 c -0.213861,0 -0.42448,-0.09316 -0.512779,-0.21548 -0.153104,-0.190368 -0.21143,-0.283527 -0.196038,-1.910971 0.03807,-1.207014 0.101259,-3.139046 0.607557,-3.139046 0.405038,0 0.708817,0.506298 0.708817,3.442825 0,1.822672 -0.10126,1.822672 -0.607557,1.822672 z"
       id="path8"
       style="fill:#ffffff;fill-opacity:1;stroke-width:0.810076" />
    <path
       fill="#2196f3"
       d="m 24.10126,17.418128 c 0,0 -0.10126,-0.705576 -1.245898,-0.705576 -2.095668,0 -2.905745,1.616912 -2.905745,2.12321 0,0.810077 0.303779,1.012596 0.405039,1.215115 0.101259,0.202519 0,0.405038 0,0.607557 0,0.20252 0.101259,0.303779 0.303778,0.303779 0.20252,0 0.227632,-0.177407 0.303779,-0.303779 0.07615,-0.126372 0.202519,-0.202519 0.202519,-0.202519 0,0 0.202519,0.303779 1.417634,0.303779 1.459758,0 3.037787,-1.275871 3.037787,-2.22771 0,-1.316375 -1.512413,-1.108995 -1.518893,-1.113856 z m -3.341566,2.025192 c -0.10126,-0.202519 0.10126,-1.620153 1.721413,-1.721413 -0.506298,0.303779 -1.113856,0.708817 -1.721413,1.721413 z m 0.770383,0.376685 c 0.545991,-1.186762 1.759486,-1.830773 2.308718,-1.830773 0.464174,0 0.666693,0.238973 0.666693,0.542752 8.1e-4,0.607557 -1.416824,1.721412 -2.975411,1.288021 z"
       id="path10"
       style="fill:#ffffff;fill-opacity:1;stroke-width:0.810076" />
    <path
       fill="#2196f3"
       d="m 42.42924,22.177328 c -1.113855,0 -2.531489,1.822672 -3.139046,3.341565 -0.405038,-0.607557 -0.10126,-1.417633 0.202519,-1.923931 0.238973,-0.398558 0.911336,-1.113855 0.911336,-1.620153 0,-0.10126 0,-0.303779 -0.202519,-0.303779 -0.202519,0 -0.383976,0.119891 -0.656162,0.405038 -1.06525,1.113855 -1.672808,2.182346 -1.672808,3.037787 0,1.215115 0.506298,1.518894 0.911336,1.721413 -0.405038,1.012595 -0.810076,2.936527 -0.810076,4.252901 0,0.405039 0.405038,1.012596 1.113855,1.012596 0.332941,0 0.405038,-0.10126 0.405038,-0.506298 0,-2.531489 0.607558,-4.354161 0.607558,-4.354161 0.911336,0 3.341565,-0.817367 3.341565,-3.645344 0,-1.089553 -0.506298,-1.417634 -1.012596,-1.417634 z m -0.566243,3.184411 c -0.187938,0.172546 -0.750131,0.562193 -1.256429,0.663452 0.202519,-0.708817 0.810077,-1.721412 1.417634,-2.430229 0.372635,-0.435011 0.511158,-0.405039 0.607558,-0.405039 0.165255,0 0.205759,0.20252 0.205759,0.303779 0,0.911336 -0.680464,1.598281 -0.974522,1.868037 z"
       id="path12"
       style="fill:#ffffff;fill-opacity:1;stroke-width:0.810076" />
    <path
       fill="#2196f3"
       d="m 8.0009891,15.899235 c -2.32897,0 -3.4428252,0.489286 -3.4428252,1.113855 0,0.299728 0.2025191,0.810077 1.0125956,0.810077 0,0 0.4050383,0 0.4050383,-0.303779 0,-0.202519 -0.2243912,-0.202519 -0.4050383,-0.202519 -0.2025191,0 -0.2025191,-0.10126 -0.2025191,-0.10126 0,-0.202519 0.4050383,-0.405038 2.6327487,-0.405038 4.9617189,0 10.6322539,4.367122 10.6322539,7.290689 0,2.632748 -3.057229,2.835267 -4.252901,2.835267 -1.215115,0 -2.227711,-0.202519 -2.227711,-0.202519 0,0 0,-2.557411 0,-3.544085 2.43023,0 3.617802,0.344283 3.617802,0.830329 0,0.486046 -0.681275,0.283527 -0.681275,0.486046 0,0.202519 0.427721,0.326461 0.708817,0.303779 0.281097,-0.02268 0.911336,-0.119082 0.911336,-0.911337 0,-0.810076 -0.607557,-2.025191 -4.55668,-2.025191 0,0 0,-1.215115 0,-1.417634 0,-0.202519 -0.101259,-1.316374 -0.708817,-1.316374 -0.607557,0 -0.708817,1.042568 -0.708817,1.316374 0,0.708817 -0.0089,1.417634 -0.0089,1.417634 C 9.3173634,21.974809 6.9883934,22.481107 6.9883934,24 c 0,1.417634 2.1264508,2.531489 3.7466036,3.341566 0,0.506297 0,0.506297 0,0.810076 0,0.303779 0.202519,0.708817 0.708817,0.708817 0.607558,0 0.708817,-0.506298 0.708817,-1.113855 0,0 1.012596,0.303779 2.32897,0.303779 4.55668,0 5.873055,-2.32897 5.873055,-4.050383 0,-3.847863 -5.569276,-8.100765 -12.3536669,-8.100765 z M 10.734997,26.22771 c 0,0 -3.1390462,-1.316374 -3.1390462,-2.22771 0,-0.810077 2.4302292,-0.810077 3.1390462,-0.810077 z"
       id="path14"
       style="fill:#ffffff;fill-opacity:1;stroke-width:0.810076" />
  </g>
</svg>
