<?xml version="1.0" encoding="UTF-8" standalone="no"?>
<svg
   viewBox="0 0 48 20"
   width="48"
   height="20"
   version="1.1"
   id="svg16"
   sodipodi:docname="logo.svg"
   inkscape:version="1.2 (dc2aeda, 2022-05-15)"
   xmlns:inkscape="http://www.inkscape.org/namespaces/inkscape"
   xmlns:sodipodi="http://sodipodi.sourceforge.net/DTD/sodipodi-0.dtd"
   xmlns="http://www.w3.org/2000/svg"
   xmlns:svg="http://www.w3.org/2000/svg">
  <defs
     id="defs20" />
  <sodipodi:namedview
     id="namedview18"
     pagecolor="#ffffff"
     bordercolor="#000000"
     borderopacity="0.25"
     inkscape:showpageshadow="2"
     inkscape:pageopacity="0.0"
     inkscape:pagecheckerboard="0"
     inkscape:deskcolor="#d1d1d1"
     showgrid="false"
     inkscape:zoom="21.395833"
     inkscape:cx="15.02629"
     inkscape:cy="24.934761"
     inkscape:window-width="1387"
     inkscape:window-height="1205"
     inkscape:window-x="0"
     inkscape:window-y="25"
     inkscape:window-maximized="0"
     inkscape:current-layer="svg16" />
  <path
     fill="#2196f3"
     d="m 41.25,8.75 c -1,0 -1.75,0 -2.625,0 -0.25,0 -0.625,0.875 -0.25,0.875 0.459,0 0.72,-0.005 1.5,0 0.095,10e-4 0.5,0 0.5,0.5 0,0.285 -0.125,0.625 -0.75,0.625 -0.375,0 -0.625,0 -1.75,0 -0.375,0 -0.625,1 -0.625,1.375 0,0.25 0.125,0.25 0.25,0.25 0.258,0 2.127,-0.666 2.5,-0.625 0.297,0.033 0.5,0.274 0.5,0.625 0,0.625 -2.096,1.621 -3.375,1.621 -0.5,0 -1.375,-0.353 -1.375,-1.371 0,-0.75 0.5,-1.75 0.5,-2 0,-0.25 -0.125,-0.25 -0.125,-0.5 0,-0.25 0.125,-0.5 0.625,-0.5 0.125,0 0.25,-0.375 0.375,-1 C 37.174,8.378 36.875,8.5 36.375,8.25 35.925,8.025 36.004,7.593 36.25,7.481 36.518,7.36 39.127,7.302 40.561,7.224 40.916,7.205 41.312,7.211 41.625,8.25 41.704,8.513 41.5,8.75 41.25,8.75 Z"
     id="path2" />
  <path
     fill="#2196f3"
     d="m 33.625,13.875 c -0.81,0 -1.375,-1.375 -1.875,-2.75 C 31.425,10.23 31.375,10 31.25,10 31.125,10 31,10.5 31,11.375 31,13.75 30.625,14 30.25,14 c -0.5,0 -0.625,-0.896 -0.625,-1.5 0,-3.25 1,-4.75 1.375,-4.75 0.183,0 0.425,0.084 0.625,0.375 1.375,2 1.75,3.875 2,3.875 0.125,0 0.25,-0.375 0.25,-0.875 0,-2.25 -0.5,-3.125 -0.75,-4.25 -0.06,-0.271 0.144,-0.409 0.375,-0.25 0.599,0.412 1.75,1.625 1.75,4 0,2.375 -0.863,3.25 -1.625,3.25 z"
     id="path4" />
  <path
     fill="#2196f3"
     d="m 29,8.25 c 0,0.375 -0.25,0.625 -0.75,0.625 -0.75,0 -1.375,-0.25 -2.5,-0.25 -2,0 -2,0.25 -2,0.5 0,0.376 2,0.25 3.25,0.5 1.25,0.25 2.125,0.625 2.125,2 C 29.111,12.523 28.625,14 26,14 c -1.875,0 -3.375,-0.875 -3.375,-2 0,-0.389 0.125,-1.25 1.625,-1.25 1.125,0 3,0.5 3,0.875 0,0.375 -0.473,0.625 -1.25,0.625 -1,0 -1.625,-0.75 -2.375,-0.75 -0.25,0 -0.375,0.125 -0.375,0.375 0,0.75 1.875,1 2.75,1 0.801,0 2,-0.25 2,-1.125 0,-0.5 -0.375,-1 -2.5,-1.25 -0.517,-0.061 -2.875,0 -2.875,-1.375 C 22.625,8 23.645,7.25 26,7.25 c 2.355,0 3,0.5 3,1 z"
     id="path6" />
  <path
     fill="#2196f3"
     d="M 21.25,14 C 20.986,14 20.726,13.885 20.617,13.734 20.428,13.499 20.356,13.384 20.375,11.375 20.422,9.885 20.5,7.5 21.125,7.5 21.625,7.5 22,8.125 22,11.75 22,14 21.875,14 21.25,14 Z"
     id="path8" />
  <path
     fill="#2196f3"
     d="m 24.125,1.875 c 0,0 -0.125,-0.871 -1.538,-0.871 C 20,1.004 19,3 19,3.625 c 0,1 0.375,1.25 0.5,1.5 0.125,0.25 0,0.5 0,0.75 0,0.25 0.125,0.375 0.375,0.375 0.25,0 0.281,-0.219 0.375,-0.375 0.094,-0.156 0.25,-0.25 0.25,-0.25 0,0 0.25,0.375 1.75,0.375 C 24.052,6 26,4.425 26,3.25 26,1.625 24.133,1.881 24.125,1.875 Z M 20,4.375 c -0.125,-0.25 0.125,-2 2.125,-2.125 C 21.5,2.625 20.75,3.125 20,4.375 Z m 0.951,0.465 c 0.674,-1.465 2.172,-2.26 2.85,-2.26 0.573,0 0.823,0.295 0.823,0.67 0.001,0.75 -1.749,2.125 -3.673,1.59 z"
     id="path10" />
  <path
     fill="#2196f3"
     d="m 46.75,7.75 c -1.375,0 -3.125,2.25 -3.875,4.125 -0.5,-0.75 -0.125,-1.75 0.25,-2.375 0.295,-0.492 1.125,-1.375 1.125,-2 0,-0.125 0,-0.375 -0.25,-0.375 -0.25,0 -0.474,0.148 -0.81,0.5 -1.315,1.375 -2.065,2.694 -2.065,3.75 0,1.5 0.625,1.875 1.125,2.125 -0.5,1.25 -1,3.625 -1,5.25 0,0.5 0.5,1.25 1.375,1.25 0.411,0 0.5,-0.125 0.5,-0.625 C 43.125,16.25 43.875,14 43.875,14 45,14 48,12.991 48,9.5 48,8.155 47.375,7.75 46.75,7.75 Z m -0.699,3.931 c -0.232,0.213 -0.926,0.694 -1.551,0.819 0.25,-0.875 1,-2.125 1.75,-3 C 46.71,8.963 46.881,9 47,9 c 0.204,0 0.254,0.25 0.254,0.375 0,1.125 -0.84,1.973 -1.203,2.306 z"
     id="path12" />
  <path
     fill="#2196f3"
     d="M 4.25,0 C 1.375,0 0,0.604 0,1.375 c 0,0.37 0.25,1 1.25,1 0,0 0.5,0 0.5,-0.375 C 1.75,1.75 1.473,1.75 1.25,1.75 1,1.75 1,1.625 1,1.625 c 0,-0.25 0.5,-0.5 3.25,-0.5 6.125,0 13.125,5.391 13.125,9 0,3.25 -3.774,3.5 -5.25,3.5 -1.5,0 -2.75,-0.25 -2.75,-0.25 0,0 0,-3.157 0,-4.375 3,0 4.466,0.425 4.466,1.025 0,0.6 -0.841,0.35 -0.841,0.6 0,0.25 0.528,0.403 0.875,0.375 C 14.222,10.972 15,10.853 15,9.875 c 0,-1 -0.75,-2.5 -5.625,-2.5 0,0 0,-1.5 0,-1.75 C 9.375,5.375 9.25,4 8.5,4 7.75,4 7.625,5.287 7.625,5.625 7.625,6.5 7.614,7.375 7.614,7.375 5.875,7.5 3,8.125 3,10 c 0,1.75 2.625,3.125 4.625,4.125 0,0.625 0,0.625 0,1 0,0.375 0.25,0.875 0.875,0.875 0.75,0 0.875,-0.625 0.875,-1.375 0,0 1.25,0.375 2.875,0.375 5.625,0 7.25,-2.875 7.25,-5 C 19.5,5.25 12.625,0 4.25,0 Z m 3.375,12.75 c 0,0 -3.875,-1.625 -3.875,-2.75 0,-1 3,-1 3.875,-1 z"
     id="path14" />
</svg>
